<!DOCTYPE svg PUBLIC "-//W3C//DTD SVG 20010904//EN" "http://www.w3.org/TR/2001/REC-SVG-20010904/DTD/svg10.dtd">
<svg version="1.0" xmlns="http://www.w3.org/2000/svg" width="517px" height="118px" viewBox="0 0 5170 1180" preserveAspectRatio="xMidYMid meet">
<g id="layer101" fill="#3a6bb9" stroke="none">
 <path d="M3745 1163 c-252 -13 -296 -18 -333 -35 -57 -27 -82 -68 -82 -135 0 -29 -2 -53 -4 -53 -2 0 -27 16 -56 35 -102 69 -254 94 -366 60 -115 -34 -223 -132 -261 -237 -10 -27 -21 -48 -26 -48 -4 0 -5 46 -1 103 14 200 12 233 -17 262 -20 21 -42 28 -100 37 -41 5 -98 8 -127 5 -65 -7 -141 -49 -155 -87 -10 -26 -14 -28 -96 -33 -47 -3 -101 -11 -119 -18 -25 -8 -39 -9 -55 -1 -29 15 -150 42 -186 42 -15 0 -45 -13 -67 -28 l-38 -28 -79 23 c-98 28 -140 29 -184 2 -41 -25 -59 -58 -68 -124 -10 -78 -11 -79 -56 -30 -23 25 -72 65 -108 89 -162 108 -329 115 -485 21 l-58 -35 -71 50 c-73 52 -108 60 -150 39 -59 -31 -74 -58 -153 -285 -74 -214 -79 -225 -114 -248 -38 -25 -50 -50 -115 -233 -18 -50 -18 -55 -2 -87 20 -44 44 -56 198 -102 114 -34 134 -37 254 -38 129 -1 130 -1 191 32 34 19 74 46 88 61 l26 27 58 -27 c104 -50 228 -56 325 -16 33 14 41 13 144 -19 205 -65 336 -77 448 -39 43 15 69 15 351 -4 204 -14 311 -18 323 -12 12 7 59 4 146 -9 162 -25 199 -25 241 1 46 28 64 56 64 101 l0 37 73 -35 c92 -43 168 -57 245 -42 88 17 98 15 240 -46 150 -65 166 -66 228 -12 41 36 51 72 55 216 l2 75 7 -85 c7 -92 18 -122 53 -144 12 -8 146 -33 300 -56 306 -46 307 -46 367 10 21 19 30 38 30 58 0 59 5 61 78 25 145 -72 282 -62 426 32 69 44 123 100 154 160 25 46 27 60 27 165 0 115 0 115 -43 204 -35 74 -58 104 -130 176 -116 116 -204 160 -331 168 -67 3 -101 0 -147 -14 -46 -14 -86 -17 -184 -15 -69 2 -127 4 -128 6 -2 2 -6 23 -9 47 -4 24 -12 53 -20 65 -16 24 -63 44 -102 42 -14 -1 -156 -8 -316 -16z m19 -447 c8 -43 57 -86 97 -86 29 0 29 0 29 -61 0 -57 -1 -60 -22 -59 -49 4 -66 -1 -107 -37 l-43 -36 6 104 c9 152 16 209 26 209 4 0 11 -15 14 -34z"/>
 </g>
<g id="layer102" fill="#fdcb05" stroke="none">
 <path d="M3725 1052 c-159 -8 -293 -17 -297 -21 -3 -3 -9 -60 -13 -126 -3 -66 -8 -149 -11 -184 l-6 -63 -33 49 c-47 70 -155 167 -222 199 -81 38 -186 44 -265 15 -97 -37 -165 -134 -175 -250 l-5 -57 -107 19 -106 20 12 186 c6 102 8 189 4 193 -12 13 -154 21 -182 10 l-25 -10 -12 -249 c-7 -136 -15 -278 -19 -315 l-5 -67 -29 6 c-26 5 -29 3 -29 -22 0 -16 -2 -26 -4 -24 -2 2 1 129 7 282 7 153 10 280 8 283 -13 13 -211 -2 -226 -18 -2 -2 -9 -113 -15 -248 -6 -135 -13 -255 -16 -267 -4 -22 -9 -23 -92 -23 -81 1 -88 2 -105 25 -17 24 -17 25 3 45 11 11 26 33 31 48 14 34 90 424 85 430 -11 10 -139 33 -146 26 -4 -5 -29 -89 -56 -188 -26 -98 -56 -188 -65 -200 l-18 -21 -27 27 -27 26 27 152 c15 83 24 154 22 159 -6 10 -154 46 -161 40 -4 -5 -85 -495 -85 -520 0 -5 -5 -7 -10 -4 -5 3 -10 28 -10 55 0 156 -129 347 -294 433 -56 29 -69 32 -156 32 -80 0 -102 -4 -139 -23 -82 -44 -133 -123 -151 -234 -21 -136 19 -238 142 -353 168 -158 325 -182 481 -73 l28 20 -6 -25 c-7 -25 -4 -27 92 -56 112 -35 237 -61 294 -61 21 0 67 9 103 21 l64 21 302 -20 c220 -15 307 -18 319 -10 13 8 60 4 180 -14 111 -17 164 -21 167 -14 2 6 5 54 7 106 l2 94 -75 13 c-41 7 -105 17 -142 24 l-68 11 0 41 c0 65 3 67 107 49 50 -8 99 -12 107 -9 11 5 16 20 16 54 l1 48 13 -37 c39 -108 149 -224 273 -285 114 -57 199 -50 334 24 3 2 10 -11 15 -29 9 -30 19 -37 123 -81 63 -26 116 -46 118 -43 3 3 14 170 25 373 11 202 21 369 22 369 0 1 49 4 107 7 l107 5 7 -64 7 -64 58 0 58 0 6 -102 c3 -57 7 -134 9 -172 l3 -68 -40 6 c-23 4 -64 9 -92 12 l-51 6 5 -103 c2 -57 8 -108 13 -113 9 -11 520 -89 528 -81 3 3 7 50 9 104 l4 99 -48 10 c-27 6 -66 14 -87 17 -44 9 -42 2 -56 185 -16 201 -23 180 62 180 l72 0 0 -88 c0 -115 30 -178 130 -277 125 -123 248 -171 367 -140 81 20 165 79 203 140 28 45 30 55 30 145 0 91 -2 100 -38 172 -49 99 -150 203 -241 248 -119 59 -252 52 -342 -16 l-43 -33 -3 27 -3 27 -147 3 -148 3 0 42 c0 23 -3 59 -6 80 -5 30 -11 37 -28 36 -11 -1 -151 -9 -311 -17z m-2651 -524 c13 -13 28 -34 31 -47 l7 -24 -27 21 c-33 26 -62 28 -87 5 -21 -19 -24 -73 -6 -106 10 -20 10 -21 -6 -8 -24 20 -46 65 -46 96 0 34 50 85 84 85 14 0 36 -10 50 -22z m2119 2 c14 -11 30 -34 36 -52 l11 -32 -28 27 c-16 15 -39 27 -54 27 -48 0 -74 -68 -47 -123 8 -17 5 -16 -15 6 -24 26 -31 54 -26 102 6 56 76 82 123 45z m1611 -6 c14 -15 26 -30 26 -35 0 -4 3 -15 6 -24 4 -11 -3 -7 -19 9 -29 29 -77 35 -96 13 -18 -22 -24 -73 -12 -96 8 -13 8 -21 2 -21 -16 0 -41 56 -41 93 0 76 81 113 134 61z m-3228 -157 c7 -22 -10 -37 -41 -37 -38 0 -44 12 -33 64 l10 48 29 -28 c16 -15 32 -36 35 -47z"/>
 <path d="M310 670 c-90 -258 -95 -269 -112 -253 -11 10 -22 13 -28 7 -14 -14 -80 -203 -72 -207 4 -3 43 -16 87 -30 231 -76 384 -77 464 -4 80 74 47 169 -115 331 l-71 71 38 135 c21 73 38 134 36 135 -1 1 -28 21 -59 43 -31 23 -61 42 -66 42 -4 0 -50 -121 -102 -270z m154 -278 c20 -24 36 -48 36 -53 0 -10 -60 -12 -84 -3 -9 3 -16 14 -16 24 0 19 21 83 25 78 2 -2 19 -23 39 -46z"/>
 </g>

</svg>